# xmcd
#
# Track frame offsets:
#	150
#	16427
#	40280
#	52815
#	66315
#	93645
#	108770
#	130442
#	145947
#
# Disc length: 2242 seconds
# Revision: 6
# Processed by: cddbd v1.5.2PL0 Copyright (c) Steve Scherf et al.
# Submitted via: dBpowerAMP V12.0
#
DISCID=7c08c009
DTITLE=Karla Bonoff - Restless Nights [Columbia CK 35799]
DYEAR=1979
DGENRE=Soft Rock
TTITLE0=Trouble Again
TTITLE1=Restless Nights
TTITLE2=The Letter
TTITLE3=When You Walk In The Room
TTITLE4=Only A Fool
TTITLE5=Baby Don't Go
TTITLE6=Never Stop Her Heart
TTITLE7=Loving You
TTITLE8=The Water Is Wide
EXTD=
EXTT0=
EXTT1=
EXTT2=
EXTT3=
EXTT4=
EXTT5=
EXTT6=
EXTT7=
EXTT8=
PLAYORDER=
